<svg version="1.1" xmlns="http://www.w3.org/2000/svg" xmlns:xlink="http://www.w3.org/1999/xlink" x="0px" y="0px" width="48px" height="48px" viewBox="0 0 48 48" enable-background="new 0 0 48 48" xml:space="preserve">
<path fill="#E91E63" d="M7.937,25.92c-4.016,4.016-4.106,10.438-0.2,14.344c3.905,3.904,10.326,3.814,14.343-0.201l8.99-8.992
	L16.929,16.929L7.937,25.92z"></path>
<path fill="#00BCD4" d="M40.264,7.736C36.357,3.83,29.938,3.92,25.92,7.938l-8.991,8.991L31.07,31.07l8.99-8.991
	C44.078,18.063,44.168,11.642,40.264,7.736z"></path>
<rect x="14.707" y="22.293" transform="matrix(-0.7071 -0.7071 0.7071 -0.7071 25.7064 57.2329)" fill="#00838F" width="19.999" height="2"></rect>
<path fill="#FCE4EC" d="M18.857,18.857l-9.192,9.191c0,0-5.143,5.144,0,10.285c0.447,0.446,0.945,0.812,1.474,1.099
	c-4.045-3.668,1.097-8.812,1.097-8.812l9.192-9.192L18.857,18.857z"></path>
<path fill="#E0F7FA" d="M31.264,11.593c0,0,4.5-4.499,8.356-0.643c-0.287-0.528-0.649-1.028-1.097-1.475
	c-5.332-4.954-9.832-0.454-9.832-0.454l-9.834,9.836l2.571,2.571L31.264,11.593z"></path>
<rect x="19.032" y="18.435" transform="matrix(-0.7071 -0.7071 0.7071 -0.7071 21.8493 47.9209)" fill="#80DEEA" width="3.636" height="2"></rect>
</svg>