<svg width="100%" height="100%" viewBox="0 0 48 48" version="1.1" xmlns="http://www.w3.org/2000/svg" xmlns:xlink="http://www.w3.org/1999/xlink" xml:space="preserve" style="fill-rule:evenodd;clip-rule:evenodd;stroke-linejoin:round;stroke-miterlimit:1.41421;"><g id="Capa2"><path d="M39,31.286c0,0.474 -0.383,0.857 -0.857,0.857l-34.286,0c-0.474,0 -0.857,-0.383 -0.857,-0.857l0,-20.572c0,-0.474 0.383,-0.857 0.857,-0.857l34.286,0c0.474,0 0.857,0.383 0.857,0.857l0,20.572Z" style="fill:#cfd8dc;fill-rule:nonzero;"/><rect x="4.714" y="11.571" width="32.571" height="18.857" style="fill:#fff;"/></g><g id="Capa21"><path d="M42,34.286c0,0.474 -0.383,0.857 -0.857,0.857l-34.286,0c-0.474,0 -0.857,-0.383 -0.857,-0.857l0,-20.572c0,-0.474 0.383,-0.857 0.857,-0.857l34.286,0c0.474,0 0.857,0.383 0.857,0.857l0,20.572Z" style="fill:#cfd8dc;fill-rule:nonzero;"/><rect x="7.714" y="14.571" width="32.571" height="18.857" style="fill:#fff;"/></g><g id="Capa22"><path d="M45,37.286c0,0.474 -0.383,0.857 -0.857,0.857l-34.286,0c-0.474,0 -0.857,-0.383 -0.857,-0.857l0,-20.572c0,-0.474 0.383,-0.857 0.857,-0.857l34.286,0c0.474,0 0.857,0.383 0.857,0.857l0,20.572Z" style="fill:#cfd8dc;fill-rule:nonzero;"/><rect x="10.714" y="17.571" width="32.571" height="18.857" style="fill:#fff;"/><rect x="13.286" y="21.857" width="15.429" height="1.714" style="fill:#cfd8dc;"/><rect x="13.286" y="25.286" width="10.286" height="1.714" style="fill:#cfd8dc;"/><g><rect x="32.143" y="26.143" width="8.571" height="3.429" style="fill:#f44336;"/><rect x="34.714" y="23.571" width="3.429" height="8.571" style="fill:#f44336;"/></g><path d="M16.404,27c-0.382,0 -0.874,0.281 -1.308,0.83c-0.433,0.55 -0.782,1.38 -0.782,2.513c0,0.527 0.169,1.13 0.482,1.618c0.08,0.124 0.174,0.237 0.274,0.343c-0.389,0.496 -0.708,0.873 -0.708,0.873c-0.043,0.032 -0.069,0.083 -0.069,0.137c0,0.094 0.078,0.172 0.172,0.172c0.058,0 0.112,-0.03 0.144,-0.079c0,0 0.323,-0.381 0.718,-0.884c0.247,0.183 0.531,0.306 0.857,0.306c0.532,0 1.036,-0.262 1.473,-0.633c0.08,-0.067 0.144,-0.155 0.22,-0.23c0.134,0.103 0.289,0.177 0.466,0.177c0.271,0 0.51,-0.135 0.718,-0.311c0.207,-0.175 0.393,-0.397 0.557,-0.616c0.164,-0.219 0.309,-0.431 0.428,-0.584c0.052,-0.066 0.097,-0.109 0.134,-0.144c0.011,0.106 0.006,0.275 -0.005,0.444c-0.011,0.169 -0.027,0.341 -0.027,0.482c0.001,0.071 0.005,0.133 0.022,0.199c0.008,0.032 0.016,0.067 0.048,0.107c0.032,0.039 0.102,0.08 0.166,0.08c0.209,0 0.368,-0.121 0.509,-0.262c0.14,-0.142 0.275,-0.316 0.418,-0.483c0.285,-0.333 0.593,-0.626 1.06,-0.626c0.001,0 0.002,0 0.003,0c0.094,0 0.171,-0.078 0.171,-0.172c0,-0.094 -0.077,-0.171 -0.171,-0.171c-0.001,0 -0.002,0 -0.003,0c-0.612,0 -1.021,0.392 -1.323,0.744c-0.151,0.177 -0.281,0.345 -0.396,0.461c-0.069,0.069 -0.111,0.071 -0.161,0.097c0.001,-0.115 0.017,-0.271 0.027,-0.434c0.011,-0.174 0.016,-0.348 0,-0.499c-0.008,-0.075 -0.017,-0.148 -0.054,-0.219c-0.036,-0.071 -0.132,-0.15 -0.235,-0.15c-0.115,0 -0.19,0.058 -0.258,0.118c-0.067,0.059 -0.132,0.129 -0.198,0.214c-0.132,0.169 -0.276,0.385 -0.434,0.595c-0.157,0.209 -0.325,0.416 -0.498,0.562c-0.173,0.146 -0.341,0.225 -0.498,0.225c-0.086,0 -0.165,-0.022 -0.236,-0.07c0.243,-0.276 0.467,-0.567 0.643,-0.873c0.281,-0.486 0.464,-0.968 0.509,-1.361c0.022,-0.196 0.015,-0.378 -0.064,-0.53c-0.08,-0.152 -0.252,-0.252 -0.44,-0.252c-0.376,0 -0.723,0.247 -0.969,0.611c-0.247,0.364 -0.402,0.859 -0.402,1.414c0,0.361 0.077,0.694 0.236,0.954c0.006,0.011 0.019,0.016 0.026,0.027c-0.072,0.071 -0.139,0.156 -0.214,0.219c-0.398,0.337 -0.829,0.547 -1.248,0.547c-0.241,0 -0.455,-0.095 -0.648,-0.236c0.159,-0.211 0.297,-0.37 0.466,-0.621c0.694,-1.035 1.398,-2.36 1.398,-3.568c0,-0.137 -0.014,-0.386 -0.15,-0.622c-0.136,-0.236 -0.42,-0.439 -0.846,-0.439Zm0,0.343c0.327,0 0.459,0.118 0.546,0.268c0.087,0.15 0.107,0.346 0.107,0.45c0,1.071 -0.667,2.365 -1.344,3.375c-0.153,0.227 -0.273,0.368 -0.418,0.562c-0.069,-0.078 -0.15,-0.132 -0.209,-0.225c-0.274,-0.425 -0.429,-0.98 -0.429,-1.43c0,-1.062 0.328,-1.816 0.713,-2.304c0.385,-0.488 0.849,-0.696 1.034,-0.696Zm2.351,1.714c0.091,0 0.106,0.015 0.134,0.07c0.029,0.054 0.05,0.169 0.032,0.327c-0.035,0.314 -0.207,0.775 -0.471,1.232c-0.156,0.27 -0.347,0.531 -0.557,0.777c-0.101,-0.188 -0.166,-0.44 -0.166,-0.724c0,-0.49 0.139,-0.921 0.343,-1.221c0.203,-0.3 0.462,-0.461 0.685,-0.461Zm-4.612,5.143l0,0.343l8.571,0l0,-0.343l-8.571,0Z" style="fill-rule:nonzero;stroke:#000;stroke-width:0.5px;"/></g></svg>