<svg width="100%" height="100%" viewBox="0 0 48 48" version="1.1" xmlns="http://www.w3.org/2000/svg" xmlns:xlink="http://www.w3.org/1999/xlink" xml:space="preserve" style="fill-rule:evenodd;clip-rule:evenodd;stroke-linejoin:round;stroke-miterlimit:1.41421;"><g><rect x="10" y="9" width="28" height="7" style="fill:#d17a00;"/><g><path d="M10,23l-4,0l0,-8l4,-6l0,14Z" style="fill:#8a5100;fill-rule:nonzero;"/><path d="M38,23l4,0l0,-8l-4,-6l0,14Z" style="fill:#8a5100;fill-rule:nonzero;"/></g><path d="M40,43l-32,0c-1.1,0 -2,-0.9 -2,-2l0,-26l36,0l0,26c0,1.1 -0.9,2 -2,2Z" style="fill:#ff9800;fill-rule:nonzero;"/><path d="M27.5,22l-7,0c-0.8,0 -1.5,-0.7 -1.5,-1.5c0,-0.8 0.7,-1.5 1.5,-1.5l7,0c0.8,0 1.5,0.7 1.5,1.5c0,0.8 -0.7,1.5 -1.5,1.5Z" style="fill:#8a5100;fill-rule:nonzero;"/></g><path d="M22,11.5l-4,0l6,-7l6,7l-4,0l0,3.5l-4,0l0,-3.5Z" style="fill:#dd2c00;"/></svg>