<svg version="1.1" xmlns="http://www.w3.org/2000/svg" xmlns:xlink="http://www.w3.org/1999/xlink" x="0px" y="0px" width="100%" height="100%" viewBox="0 0 48 48" enable-background="new 0 0 48 48" xml:space="preserve" >
<circle fill="#EEEEEE" cx="24" cy="24" r="15"></circle>
<g>
    <path fill="#263238" d="M22.485,21.415c-1.438,0.837-1.912,2.678-1.058,4.111c0.853,1.437,2.707,1.919,4.146,1.082
        c1.438-0.836,1.911-2.677,1.056-4.112C25.776,21.062,23.921,20.576,22.485,21.415"></path>
    <polygon fill="#263238" points="35.299,17.444 25.925,25.238 23.866,21.776 	"></polygon>
</g>
<g>
    <path fill="#FF1744" d="M12.004,23H7.05C7.031,23.333,7,23.663,7,24c0,0.344,0.031,0.681,0.052,1.02h4.952V23z"></path>
    <path fill="#FF1744" d="M13.891,30.54l-0.949-1.782l-4.378,2.331c0.283,0.614,0.603,1.207,0.954,1.78L13.891,30.54z"></path>
</g>
<g>
    <path fill="#90A4AE" d="M17.176,14.081l1.755-1l-2.454-4.309c-0.606,0.3-1.195,0.627-1.758,0.995L17.176,14.081z"></path>
    <path fill="#90A4AE" d="M8.807,16.406l4.294,2.479l1.01-1.749l-4.302-2.484C9.438,15.212,9.109,15.801,8.807,16.406z"></path>
    <path fill="#90A4AE" d="M35.996,25h4.953C40.969,24.667,41,24.337,41,24c0-0.344-0.031-0.681-0.052-1.02h-4.952V25z"></path>
    <path fill="#90A4AE" d="M39.56,30.835l-4.419-2.268l-0.922,1.797l4.41,2.264C38.971,32.05,39.286,31.454,39.56,30.835z"></path>
    <path fill="#90A4AE" d="M33.466,9.88c-0.558-0.375-1.146-0.706-1.747-1.013l-2.516,4.276l1.741,1.024L33.466,9.88z"></path>
    <path fill="#90A4AE" d="M25,7.05C24.667,7.031,24.337,7,24,7c-0.344,0-0.681,0.031-1.02,0.052v4.952H25V7.05z"></path>
</g>
<path fill="#00ACC1" d="M24,5C13.507,5,5,13.507,5,24s8.507,19,19,19s19-8.507,19-19S34.493,5,24,5z M24,39c-8.284,0-15-6.716-15-15
    S15.716,9,24,9s15,6.716,15,15S32.284,39,24,39z"></path>
<path fill="#4DD0E1" d="M23.512,23.146c-0.477,0.277-0.634,0.894-0.35,1.371c0.283,0.478,0.904,0.639,1.382,0.359
    c0.479-0.277,0.637-0.893,0.353-1.372C24.612,23.028,23.991,22.867,23.512,23.146"></path>
</svg>